<svg width="84" height="84" viewBox="0 0 84 84" fill="none" xmlns="http://www.w3.org/2000/svg">
<path fill-rule="evenodd" clip-rule="evenodd" d="M3.5 42C3.5 20.737 20.737 3.5 42 3.5C63.263 3.5 80.5 20.737 80.5 42C80.5 63.263 63.263 80.5 42 80.5C20.737 80.5 3.5 63.263 3.5 42Z" fill="#5C07A3"/>
<path fill-rule="evenodd" clip-rule="evenodd" d="M60.5873 28.1503C61.9542 29.5171 61.9542 31.7332 60.5873 33.1L38.8624 55.85C37.4956 57.2168 35.2795 57.2168 33.9127 55.85L23.4127 45.35C22.0459 43.9832 22.0459 41.7671 23.4127 40.4003C24.7795 39.0334 26.9956 39.0334 28.3624 40.4003L36.3876 48.4254L55.6376 28.1503C57.0044 26.7834 59.2205 26.7834 60.5873 28.1503Z" fill="white"/>
</svg>
