<svg width="20" height="20" viewBox="0 0 20 20" fill="none" xmlns="http://www.w3.org/2000/svg">
<path fill-rule="evenodd" clip-rule="evenodd" d="M9.62732 0.92129C9.86192 0.803987 10.1381 0.803987 10.3727 0.92129L18.706 5.08796C18.9883 5.22912 19.1667 5.51767 19.1667 5.83331C19.1667 6.14896 18.9883 6.43751 18.706 6.57867L10.3727 10.7453C10.1381 10.8626 9.86192 10.8626 9.62732 10.7453L1.29398 6.57867C1.01166 6.43751 0.833328 6.14896 0.833328 5.83331C0.833328 5.51767 1.01166 5.22912 1.29398 5.08796L9.62732 0.92129ZM3.53005 5.83331L9.99999 9.06828L16.4699 5.83331L9.99999 2.59834L3.53005 5.83331Z" fill="#777777"/>
<path fill-rule="evenodd" clip-rule="evenodd" d="M0.921305 13.794C1.12713 13.3823 1.62769 13.2155 2.03934 13.4213L9.99999 17.4016L17.9606 13.4213C18.3723 13.2155 18.8729 13.3823 19.0787 13.794C19.2845 14.2056 19.1177 14.7062 18.706 14.912L10.3727 19.0787C10.1381 19.196 9.86192 19.196 9.62732 19.0787L1.29398 14.912C0.882334 14.7062 0.715481 14.2056 0.921305 13.794Z" fill="#777777"/>
<path fill-rule="evenodd" clip-rule="evenodd" d="M0.921305 9.6273C1.12713 9.21565 1.62769 9.0488 2.03934 9.25462L9.99999 13.2349L17.9606 9.25462C18.3723 9.0488 18.8729 9.21565 19.0787 9.6273C19.2845 10.0389 19.1177 10.5395 18.706 10.7453L10.3727 14.912C10.1381 15.0293 9.86192 15.0293 9.62732 14.912L1.29398 10.7453C0.882334 10.5395 0.715481 10.0389 0.921305 9.6273Z" fill="#777777"/>
</svg>
